<mxfile host="app.diagrams.net" agent="Mozilla/5.0 (Windows NT 10.0; Win64; x64) AppleWebKit/537.36 (KHTML, like Gecko) Chrome/131.0.0.0 Safari/537.36 Edg/131.0.0.0" version="24.8.3">
  <diagram name="第 1 页" id="YSqtzQQ4Luk7J_MaEa-N">
    <mxGraphModel dx="983" dy="570" grid="1" gridSize="10" guides="1" tooltips="1" connect="1" arrows="1" fold="1" page="1" pageScale="1" pageWidth="1200" pageHeight="1920" math="0" shadow="0">
      <root>
        <mxCell id="0" />
        <mxCell id="1" parent="0" />
        <mxCell id="Pmkf9uBmZnsgJyyeGrhR-2" value="外线账目系统" style="rounded=0;whiteSpace=wrap;html=1;" vertex="1" parent="1">
          <mxGeometry x="660" y="250" width="120" height="60" as="geometry" />
        </mxCell>
        <mxCell id="Pmkf9uBmZnsgJyyeGrhR-5" style="edgeStyle=orthogonalEdgeStyle;rounded=0;orthogonalLoop=1;jettySize=auto;html=1;entryX=0;entryY=0.5;entryDx=0;entryDy=0;" edge="1" parent="1" source="Pmkf9uBmZnsgJyyeGrhR-3" target="Pmkf9uBmZnsgJyyeGrhR-4">
          <mxGeometry relative="1" as="geometry" />
        </mxCell>
        <mxCell id="Pmkf9uBmZnsgJyyeGrhR-3" value="用户" style="rounded=0;whiteSpace=wrap;html=1;" vertex="1" parent="1">
          <mxGeometry x="150" y="250" width="120" height="60" as="geometry" />
        </mxCell>
        <mxCell id="Pmkf9uBmZnsgJyyeGrhR-7" style="edgeStyle=orthogonalEdgeStyle;rounded=0;orthogonalLoop=1;jettySize=auto;html=1;entryX=0.5;entryY=1;entryDx=0;entryDy=0;" edge="1" parent="1" source="Pmkf9uBmZnsgJyyeGrhR-4" target="Pmkf9uBmZnsgJyyeGrhR-2">
          <mxGeometry relative="1" as="geometry" />
        </mxCell>
        <mxCell id="Pmkf9uBmZnsgJyyeGrhR-9" style="edgeStyle=orthogonalEdgeStyle;rounded=0;orthogonalLoop=1;jettySize=auto;html=1;entryX=0;entryY=1;entryDx=0;entryDy=0;" edge="1" parent="1" source="Pmkf9uBmZnsgJyyeGrhR-4" target="Pmkf9uBmZnsgJyyeGrhR-3">
          <mxGeometry relative="1" as="geometry">
            <Array as="points">
              <mxPoint x="480" y="530" />
              <mxPoint x="150" y="530" />
            </Array>
          </mxGeometry>
        </mxCell>
        <mxCell id="Pmkf9uBmZnsgJyyeGrhR-4" value="程控电话系统" style="ellipse;whiteSpace=wrap;html=1;" vertex="1" parent="1">
          <mxGeometry x="420" y="410" width="120" height="80" as="geometry" />
        </mxCell>
        <mxCell id="Pmkf9uBmZnsgJyyeGrhR-6" value="电话号码" style="text;html=1;align=center;verticalAlign=middle;resizable=0;points=[];autosize=1;strokeColor=none;fillColor=none;" vertex="1" parent="1">
          <mxGeometry x="275" y="338" width="70" height="30" as="geometry" />
        </mxCell>
        <mxCell id="Pmkf9uBmZnsgJyyeGrhR-8" value="外线通话信息" style="text;html=1;align=center;verticalAlign=middle;resizable=0;points=[];autosize=1;strokeColor=none;fillColor=none;" vertex="1" parent="1">
          <mxGeometry x="680" y="398" width="100" height="30" as="geometry" />
        </mxCell>
        <mxCell id="Pmkf9uBmZnsgJyyeGrhR-10" value="应付费用" style="text;html=1;align=center;verticalAlign=middle;resizable=0;points=[];autosize=1;strokeColor=none;fillColor=none;" vertex="1" parent="1">
          <mxGeometry x="265" y="528" width="70" height="30" as="geometry" />
        </mxCell>
      </root>
    </mxGraphModel>
  </diagram>
</mxfile>
